<mxfile host="app.diagrams.net" modified="2023-03-18T09:15:37.541Z" agent="5.0 (Windows NT 10.0; Win64; x64) AppleWebKit/537.36 (KHTML, like Gecko) Chrome/111.0.0.0 Safari/537.36 Edg/111.0.1661.41" etag="__hD9uwypiyYhku7elAP" version="21.0.6" type="github">
  <diagram name="第 1 页" id="R3ORfWjPxXJpP8IHzga0">
    <mxGraphModel dx="312" dy="165" grid="0" gridSize="10" guides="1" tooltips="1" connect="1" arrows="1" fold="1" page="1" pageScale="1" pageWidth="2339" pageHeight="3300" math="0" shadow="0">
      <root>
        <mxCell id="0" />
        <mxCell id="1" parent="0" />
        <mxCell id="zIMK_kYC2Au4o3m2R_S_-10" style="edgeStyle=orthogonalEdgeStyle;rounded=0;orthogonalLoop=1;jettySize=auto;html=1;entryX=-0.035;entryY=0.617;entryDx=0;entryDy=0;entryPerimeter=0;" edge="1" parent="1" source="zIMK_kYC2Au4o3m2R_S_-1" target="zIMK_kYC2Au4o3m2R_S_-9">
          <mxGeometry relative="1" as="geometry">
            <Array as="points">
              <mxPoint x="516" y="1512" />
            </Array>
          </mxGeometry>
        </mxCell>
        <mxCell id="zIMK_kYC2Au4o3m2R_S_-50" value="1~9" style="edgeLabel;html=1;align=center;verticalAlign=middle;resizable=0;points=[];" vertex="1" connectable="0" parent="zIMK_kYC2Au4o3m2R_S_-10">
          <mxGeometry x="-0.463" y="1" relative="1" as="geometry">
            <mxPoint x="17" y="14" as="offset" />
          </mxGeometry>
        </mxCell>
        <mxCell id="zIMK_kYC2Au4o3m2R_S_-11" style="edgeStyle=orthogonalEdgeStyle;rounded=0;orthogonalLoop=1;jettySize=auto;html=1;entryX=0;entryY=0.5;entryDx=0;entryDy=0;" edge="1" parent="1" source="zIMK_kYC2Au4o3m2R_S_-1" target="zIMK_kYC2Au4o3m2R_S_-8">
          <mxGeometry relative="1" as="geometry">
            <Array as="points">
              <mxPoint x="516" y="1102" />
            </Array>
          </mxGeometry>
        </mxCell>
        <mxCell id="zIMK_kYC2Au4o3m2R_S_-1" value="INIT" style="ellipse;whiteSpace=wrap;html=1;aspect=fixed;" vertex="1" parent="1">
          <mxGeometry x="485" y="1175" width="62" height="62" as="geometry" />
        </mxCell>
        <mxCell id="zIMK_kYC2Au4o3m2R_S_-18" style="edgeStyle=orthogonalEdgeStyle;rounded=0;orthogonalLoop=1;jettySize=auto;html=1;jumpStyle=arc;" edge="1" parent="1" source="zIMK_kYC2Au4o3m2R_S_-2" target="zIMK_kYC2Au4o3m2R_S_-17">
          <mxGeometry relative="1" as="geometry" />
        </mxCell>
        <mxCell id="zIMK_kYC2Au4o3m2R_S_-2" value="1" style="ellipse;whiteSpace=wrap;html=1;aspect=fixed;" vertex="1" parent="1">
          <mxGeometry x="630" y="1071.28" width="62" height="62" as="geometry" />
        </mxCell>
        <mxCell id="zIMK_kYC2Au4o3m2R_S_-3" value="" style="endArrow=classic;html=1;rounded=0;" edge="1" parent="1">
          <mxGeometry width="50" height="50" relative="1" as="geometry">
            <mxPoint x="417" y="1206" as="sourcePoint" />
            <mxPoint x="485" y="1206" as="targetPoint" />
          </mxGeometry>
        </mxCell>
        <mxCell id="zIMK_kYC2Au4o3m2R_S_-5" value="0" style="text;html=1;align=center;verticalAlign=middle;resizable=0;points=[];autosize=1;strokeColor=none;fillColor=none;" vertex="1" parent="1">
          <mxGeometry x="518" y="1133.28" width="25" height="26" as="geometry" />
        </mxCell>
        <mxCell id="zIMK_kYC2Au4o3m2R_S_-14" style="edgeStyle=orthogonalEdgeStyle;rounded=0;orthogonalLoop=1;jettySize=auto;html=1;entryX=0;entryY=0.5;entryDx=0;entryDy=0;" edge="1" parent="1" source="zIMK_kYC2Au4o3m2R_S_-8" target="zIMK_kYC2Au4o3m2R_S_-12">
          <mxGeometry relative="1" as="geometry">
            <Array as="points">
              <mxPoint x="663" y="918" />
              <mxPoint x="784" y="918" />
            </Array>
          </mxGeometry>
        </mxCell>
        <mxCell id="zIMK_kYC2Au4o3m2R_S_-16" style="edgeStyle=orthogonalEdgeStyle;rounded=0;orthogonalLoop=1;jettySize=auto;html=1;" edge="1" parent="1" source="zIMK_kYC2Au4o3m2R_S_-8" target="zIMK_kYC2Au4o3m2R_S_-15">
          <mxGeometry relative="1" as="geometry">
            <Array as="points">
              <mxPoint x="684" y="1012" />
            </Array>
          </mxGeometry>
        </mxCell>
        <mxCell id="zIMK_kYC2Au4o3m2R_S_-20" style="edgeStyle=orthogonalEdgeStyle;rounded=0;orthogonalLoop=1;jettySize=auto;html=1;" edge="1" parent="1" source="zIMK_kYC2Au4o3m2R_S_-8" target="zIMK_kYC2Au4o3m2R_S_-19">
          <mxGeometry relative="1" as="geometry">
            <Array as="points">
              <mxPoint x="685" y="1220" />
            </Array>
          </mxGeometry>
        </mxCell>
        <mxCell id="zIMK_kYC2Au4o3m2R_S_-22" style="edgeStyle=orthogonalEdgeStyle;rounded=0;orthogonalLoop=1;jettySize=auto;html=1;" edge="1" parent="1" source="zIMK_kYC2Au4o3m2R_S_-8" target="zIMK_kYC2Au4o3m2R_S_-55">
          <mxGeometry relative="1" as="geometry">
            <mxPoint x="801.0006468825022" y="1356.0588235294117" as="targetPoint" />
            <Array as="points">
              <mxPoint x="661" y="1384" />
            </Array>
          </mxGeometry>
        </mxCell>
        <mxCell id="zIMK_kYC2Au4o3m2R_S_-8" value="" style="ellipse;whiteSpace=wrap;html=1;aspect=fixed;" vertex="1" parent="1">
          <mxGeometry x="632.75" y="1074.03" width="56.5" height="56.5" as="geometry" />
        </mxCell>
        <mxCell id="zIMK_kYC2Au4o3m2R_S_-42" style="edgeStyle=orthogonalEdgeStyle;rounded=0;orthogonalLoop=1;jettySize=auto;html=1;entryX=0.5;entryY=1;entryDx=0;entryDy=0;jumpStyle=arc;" edge="1" parent="1" source="zIMK_kYC2Au4o3m2R_S_-9" target="zIMK_kYC2Au4o3m2R_S_-15">
          <mxGeometry relative="1" as="geometry" />
        </mxCell>
        <mxCell id="zIMK_kYC2Au4o3m2R_S_-49" style="edgeStyle=orthogonalEdgeStyle;rounded=0;orthogonalLoop=1;jettySize=auto;html=1;entryX=0.644;entryY=0.96;entryDx=0;entryDy=0;entryPerimeter=0;jumpStyle=arc;" edge="1" parent="1" source="zIMK_kYC2Au4o3m2R_S_-9" target="zIMK_kYC2Au4o3m2R_S_-17">
          <mxGeometry relative="1" as="geometry">
            <mxPoint x="1277" y="1166" as="targetPoint" />
            <Array as="points">
              <mxPoint x="1283" y="1515" />
            </Array>
          </mxGeometry>
        </mxCell>
        <mxCell id="zIMK_kYC2Au4o3m2R_S_-58" value="l" style="edgeLabel;html=1;align=center;verticalAlign=middle;resizable=0;points=[];" vertex="1" connectable="0" parent="zIMK_kYC2Au4o3m2R_S_-49">
          <mxGeometry x="-0.5413" y="1" relative="1" as="geometry">
            <mxPoint x="-58" y="15" as="offset" />
          </mxGeometry>
        </mxCell>
        <mxCell id="zIMK_kYC2Au4o3m2R_S_-9" value="" style="ellipse;whiteSpace=wrap;html=1;aspect=fixed;" vertex="1" parent="1">
          <mxGeometry x="623" y="1474" width="62" height="62" as="geometry" />
        </mxCell>
        <mxCell id="zIMK_kYC2Au4o3m2R_S_-30" style="edgeStyle=orthogonalEdgeStyle;rounded=0;orthogonalLoop=1;jettySize=auto;html=1;" edge="1" parent="1" source="zIMK_kYC2Au4o3m2R_S_-12" target="zIMK_kYC2Au4o3m2R_S_-29">
          <mxGeometry relative="1" as="geometry" />
        </mxCell>
        <mxCell id="zIMK_kYC2Au4o3m2R_S_-12" value="" style="ellipse;whiteSpace=wrap;html=1;aspect=fixed;" vertex="1" parent="1">
          <mxGeometry x="802" y="890" width="56.5" height="56.5" as="geometry" />
        </mxCell>
        <mxCell id="zIMK_kYC2Au4o3m2R_S_-81" style="edgeStyle=orthogonalEdgeStyle;rounded=0;orthogonalLoop=1;jettySize=auto;html=1;" edge="1" parent="1" source="zIMK_kYC2Au4o3m2R_S_-15" target="zIMK_kYC2Au4o3m2R_S_-80">
          <mxGeometry relative="1" as="geometry">
            <Array as="points">
              <mxPoint x="1071" y="856" />
              <mxPoint x="1579" y="856" />
            </Array>
          </mxGeometry>
        </mxCell>
        <mxCell id="zIMK_kYC2Au4o3m2R_S_-83" style="edgeStyle=orthogonalEdgeStyle;rounded=0;orthogonalLoop=1;jettySize=auto;html=1;" edge="1" parent="1" source="zIMK_kYC2Au4o3m2R_S_-15" target="zIMK_kYC2Au4o3m2R_S_-82">
          <mxGeometry relative="1" as="geometry" />
        </mxCell>
        <mxCell id="zIMK_kYC2Au4o3m2R_S_-15" value="" style="ellipse;whiteSpace=wrap;html=1;aspect=fixed;" vertex="1" parent="1">
          <mxGeometry x="1043" y="985" width="56.5" height="56.5" as="geometry" />
        </mxCell>
        <mxCell id="zIMK_kYC2Au4o3m2R_S_-39" style="edgeStyle=orthogonalEdgeStyle;rounded=0;orthogonalLoop=1;jettySize=auto;html=1;entryX=0.274;entryY=0.98;entryDx=0;entryDy=0;entryPerimeter=0;exitX=1;exitY=0.5;exitDx=0;exitDy=0;jumpStyle=arc;" edge="1" parent="1" source="zIMK_kYC2Au4o3m2R_S_-19" target="zIMK_kYC2Au4o3m2R_S_-15">
          <mxGeometry relative="1" as="geometry">
            <mxPoint x="1020" y="1045" as="targetPoint" />
          </mxGeometry>
        </mxCell>
        <mxCell id="zIMK_kYC2Au4o3m2R_S_-61" style="edgeStyle=orthogonalEdgeStyle;rounded=0;orthogonalLoop=1;jettySize=auto;html=1;exitX=1;exitY=1;exitDx=0;exitDy=0;jumpStyle=arc;" edge="1" parent="1" source="zIMK_kYC2Au4o3m2R_S_-41" target="zIMK_kYC2Au4o3m2R_S_-55">
          <mxGeometry relative="1" as="geometry" />
        </mxCell>
        <mxCell id="zIMK_kYC2Au4o3m2R_S_-62" value="L" style="edgeLabel;html=1;align=center;verticalAlign=middle;resizable=0;points=[];" vertex="1" connectable="0" parent="zIMK_kYC2Au4o3m2R_S_-61">
          <mxGeometry x="0.0078" y="-2" relative="1" as="geometry">
            <mxPoint x="-9" y="20" as="offset" />
          </mxGeometry>
        </mxCell>
        <mxCell id="zIMK_kYC2Au4o3m2R_S_-72" style="edgeStyle=orthogonalEdgeStyle;rounded=0;orthogonalLoop=1;jettySize=auto;html=1;jumpStyle=arc;" edge="1" parent="1" source="zIMK_kYC2Au4o3m2R_S_-17" target="zIMK_kYC2Au4o3m2R_S_-71">
          <mxGeometry relative="1" as="geometry" />
        </mxCell>
        <mxCell id="zIMK_kYC2Au4o3m2R_S_-78" style="edgeStyle=orthogonalEdgeStyle;rounded=0;orthogonalLoop=1;jettySize=auto;html=1;" edge="1" parent="1" source="zIMK_kYC2Au4o3m2R_S_-17" target="zIMK_kYC2Au4o3m2R_S_-66">
          <mxGeometry relative="1" as="geometry">
            <Array as="points">
              <mxPoint x="1300" y="1141" />
              <mxPoint x="1935" y="1141" />
            </Array>
          </mxGeometry>
        </mxCell>
        <mxCell id="zIMK_kYC2Au4o3m2R_S_-17" value="" style="ellipse;whiteSpace=wrap;html=1;aspect=fixed;" vertex="1" parent="1">
          <mxGeometry x="1243" y="1071.28" width="62" height="62" as="geometry" />
        </mxCell>
        <mxCell id="zIMK_kYC2Au4o3m2R_S_-19" value="" style="ellipse;whiteSpace=wrap;html=1;aspect=fixed;" vertex="1" parent="1">
          <mxGeometry x="801" y="1192" width="56.5" height="56.5" as="geometry" />
        </mxCell>
        <mxCell id="zIMK_kYC2Au4o3m2R_S_-23" value="x|X" style="text;html=1;align=center;verticalAlign=middle;resizable=0;points=[];autosize=1;strokeColor=none;fillColor=none;" vertex="1" parent="1">
          <mxGeometry x="717" y="887" width="35" height="26" as="geometry" />
        </mxCell>
        <mxCell id="zIMK_kYC2Au4o3m2R_S_-25" value="u|U" style="text;html=1;align=center;verticalAlign=middle;resizable=0;points=[];autosize=1;strokeColor=none;fillColor=none;" vertex="1" parent="1">
          <mxGeometry x="762" y="985" width="36" height="26" as="geometry" />
        </mxCell>
        <mxCell id="zIMK_kYC2Au4o3m2R_S_-26" value="l" style="text;html=1;align=center;verticalAlign=middle;resizable=0;points=[];autosize=1;strokeColor=none;fillColor=none;" vertex="1" parent="1">
          <mxGeometry x="729.5" y="1071.28" width="21" height="26" as="geometry" />
        </mxCell>
        <mxCell id="zIMK_kYC2Au4o3m2R_S_-27" value="0~7" style="text;html=1;align=center;verticalAlign=middle;resizable=0;points=[];autosize=1;strokeColor=none;fillColor=none;" vertex="1" parent="1">
          <mxGeometry x="724" y="1187" width="38" height="26" as="geometry" />
        </mxCell>
        <mxCell id="zIMK_kYC2Au4o3m2R_S_-28" value="L" style="text;html=1;align=center;verticalAlign=middle;resizable=0;points=[];autosize=1;strokeColor=none;fillColor=none;" vertex="1" parent="1">
          <mxGeometry x="697" y="1356" width="25" height="26" as="geometry" />
        </mxCell>
        <mxCell id="zIMK_kYC2Au4o3m2R_S_-29" value="" style="ellipse;whiteSpace=wrap;html=1;aspect=fixed;" vertex="1" parent="1">
          <mxGeometry x="962" y="890" width="56.5" height="56.5" as="geometry" />
        </mxCell>
        <mxCell id="zIMK_kYC2Au4o3m2R_S_-36" style="edgeStyle=orthogonalEdgeStyle;rounded=0;orthogonalLoop=1;jettySize=auto;html=1;entryX=0;entryY=0;entryDx=0;entryDy=0;" edge="1" parent="1" source="zIMK_kYC2Au4o3m2R_S_-31" target="zIMK_kYC2Au4o3m2R_S_-15">
          <mxGeometry relative="1" as="geometry" />
        </mxCell>
        <mxCell id="zIMK_kYC2Au4o3m2R_S_-44" style="edgeStyle=orthogonalEdgeStyle;rounded=0;orthogonalLoop=1;jettySize=auto;html=1;" edge="1" parent="1" source="zIMK_kYC2Au4o3m2R_S_-31" target="zIMK_kYC2Au4o3m2R_S_-17">
          <mxGeometry relative="1" as="geometry">
            <Array as="points">
              <mxPoint x="1274" y="909" />
            </Array>
          </mxGeometry>
        </mxCell>
        <mxCell id="zIMK_kYC2Au4o3m2R_S_-59" style="edgeStyle=orthogonalEdgeStyle;rounded=0;orthogonalLoop=1;jettySize=auto;html=1;jumpStyle=arc;" edge="1" parent="1" source="zIMK_kYC2Au4o3m2R_S_-31" target="zIMK_kYC2Au4o3m2R_S_-55">
          <mxGeometry relative="1" as="geometry">
            <Array as="points">
              <mxPoint x="1369" y="899" />
            </Array>
          </mxGeometry>
        </mxCell>
        <mxCell id="zIMK_kYC2Au4o3m2R_S_-60" value="L" style="edgeLabel;html=1;align=center;verticalAlign=middle;resizable=0;points=[];" vertex="1" connectable="0" parent="zIMK_kYC2Au4o3m2R_S_-59">
          <mxGeometry x="0.306" y="-3" relative="1" as="geometry">
            <mxPoint x="15" y="-8" as="offset" />
          </mxGeometry>
        </mxCell>
        <mxCell id="zIMK_kYC2Au4o3m2R_S_-31" value="" style="ellipse;whiteSpace=wrap;html=1;aspect=fixed;" vertex="1" parent="1">
          <mxGeometry x="965.5" y="893.5" width="49.5" height="49.5" as="geometry" />
        </mxCell>
        <mxCell id="zIMK_kYC2Au4o3m2R_S_-32" value="0~f" style="text;html=1;align=center;verticalAlign=middle;resizable=0;points=[];autosize=1;strokeColor=none;fillColor=none;" vertex="1" parent="1">
          <mxGeometry x="886" y="890" width="35" height="26" as="geometry" />
        </mxCell>
        <mxCell id="zIMK_kYC2Au4o3m2R_S_-35" value="0~f" style="text;html=1;align=center;verticalAlign=middle;resizable=0;points=[];autosize=1;strokeColor=none;fillColor=none;" vertex="1" parent="1">
          <mxGeometry x="976" y="829" width="35" height="26" as="geometry" />
        </mxCell>
        <mxCell id="zIMK_kYC2Au4o3m2R_S_-37" value="u|U" style="text;html=1;align=center;verticalAlign=middle;resizable=0;points=[];autosize=1;strokeColor=none;fillColor=none;" vertex="1" parent="1">
          <mxGeometry x="1018.5" y="933" width="36" height="26" as="geometry" />
        </mxCell>
        <mxCell id="zIMK_kYC2Au4o3m2R_S_-40" value="u|U" style="text;html=1;align=center;verticalAlign=middle;resizable=0;points=[];autosize=1;strokeColor=none;fillColor=none;" vertex="1" parent="1">
          <mxGeometry x="1025" y="1177" width="36" height="26" as="geometry" />
        </mxCell>
        <mxCell id="zIMK_kYC2Au4o3m2R_S_-47" style="edgeStyle=orthogonalEdgeStyle;rounded=0;orthogonalLoop=1;jettySize=auto;html=1;entryX=0.5;entryY=1;entryDx=0;entryDy=0;jumpStyle=arc;" edge="1" parent="1" source="zIMK_kYC2Au4o3m2R_S_-41" target="zIMK_kYC2Au4o3m2R_S_-17">
          <mxGeometry relative="1" as="geometry">
            <mxPoint x="1275.75" y="1164.5" as="targetPoint" />
            <Array as="points">
              <mxPoint x="1274" y="1229" />
            </Array>
          </mxGeometry>
        </mxCell>
        <mxCell id="zIMK_kYC2Au4o3m2R_S_-41" value="" style="ellipse;whiteSpace=wrap;html=1;aspect=fixed;" vertex="1" parent="1">
          <mxGeometry x="804.5" y="1195.5" width="49.5" height="49.5" as="geometry" />
        </mxCell>
        <mxCell id="zIMK_kYC2Au4o3m2R_S_-43" value="u|U" style="text;html=1;align=center;verticalAlign=middle;resizable=0;points=[];autosize=1;strokeColor=none;fillColor=none;" vertex="1" parent="1">
          <mxGeometry x="833" y="1476.75" width="36" height="26" as="geometry" />
        </mxCell>
        <mxCell id="zIMK_kYC2Au4o3m2R_S_-45" value="l" style="text;html=1;align=center;verticalAlign=middle;resizable=0;points=[];autosize=1;strokeColor=none;fillColor=none;" vertex="1" parent="1">
          <mxGeometry x="1268" y="978" width="21" height="26" as="geometry" />
        </mxCell>
        <mxCell id="zIMK_kYC2Au4o3m2R_S_-52" value="" style="curved=1;endArrow=classic;html=1;rounded=0;exitX=1;exitY=0;exitDx=0;exitDy=0;entryX=0;entryY=0;entryDx=0;entryDy=0;" edge="1" parent="1">
          <mxGeometry width="50" height="50" relative="1" as="geometry">
            <mxPoint x="675" y="1482" as="sourcePoint" />
            <mxPoint x="635" y="1482" as="targetPoint" />
            <Array as="points">
              <mxPoint x="677" y="1452" />
              <mxPoint x="657" y="1440" />
              <mxPoint x="639" y="1453" />
            </Array>
          </mxGeometry>
        </mxCell>
        <mxCell id="zIMK_kYC2Au4o3m2R_S_-53" value="0~9" style="text;html=1;align=center;verticalAlign=middle;resizable=0;points=[];autosize=1;strokeColor=none;fillColor=none;" vertex="1" parent="1">
          <mxGeometry x="635" y="1421" width="38" height="26" as="geometry" />
        </mxCell>
        <mxCell id="zIMK_kYC2Au4o3m2R_S_-56" style="edgeStyle=orthogonalEdgeStyle;rounded=0;orthogonalLoop=1;jettySize=auto;html=1;" edge="1" parent="1" source="zIMK_kYC2Au4o3m2R_S_-54" target="zIMK_kYC2Au4o3m2R_S_-55">
          <mxGeometry relative="1" as="geometry">
            <Array as="points">
              <mxPoint x="654" y="1560" />
              <mxPoint x="1359" y="1560" />
            </Array>
          </mxGeometry>
        </mxCell>
        <mxCell id="zIMK_kYC2Au4o3m2R_S_-54" value="" style="ellipse;whiteSpace=wrap;html=1;aspect=fixed;" vertex="1" parent="1">
          <mxGeometry x="625.75" y="1476.75" width="56.5" height="56.5" as="geometry" />
        </mxCell>
        <mxCell id="zIMK_kYC2Au4o3m2R_S_-64" style="edgeStyle=orthogonalEdgeStyle;rounded=0;orthogonalLoop=1;jettySize=auto;html=1;" edge="1" parent="1" source="zIMK_kYC2Au4o3m2R_S_-55" target="zIMK_kYC2Au4o3m2R_S_-63">
          <mxGeometry relative="1" as="geometry">
            <Array as="points">
              <mxPoint x="1369" y="1454" />
            </Array>
          </mxGeometry>
        </mxCell>
        <mxCell id="zIMK_kYC2Au4o3m2R_S_-69" style="edgeStyle=orthogonalEdgeStyle;rounded=0;orthogonalLoop=1;jettySize=auto;html=1;entryX=0;entryY=0.5;entryDx=0;entryDy=0;" edge="1" parent="1" source="zIMK_kYC2Au4o3m2R_S_-55" target="zIMK_kYC2Au4o3m2R_S_-66">
          <mxGeometry relative="1" as="geometry">
            <Array as="points">
              <mxPoint x="1924" y="1374" />
            </Array>
          </mxGeometry>
        </mxCell>
        <mxCell id="zIMK_kYC2Au4o3m2R_S_-55" value="" style="ellipse;whiteSpace=wrap;html=1;aspect=fixed;" vertex="1" parent="1">
          <mxGeometry x="1331" y="1356" width="56.5" height="56.5" as="geometry" />
        </mxCell>
        <mxCell id="zIMK_kYC2Au4o3m2R_S_-57" value="L" style="text;html=1;align=center;verticalAlign=middle;resizable=0;points=[];autosize=1;strokeColor=none;fillColor=none;" vertex="1" parent="1">
          <mxGeometry x="722" y="1584" width="25" height="26" as="geometry" />
        </mxCell>
        <mxCell id="zIMK_kYC2Au4o3m2R_S_-67" style="edgeStyle=orthogonalEdgeStyle;rounded=0;orthogonalLoop=1;jettySize=auto;html=1;" edge="1" parent="1" source="zIMK_kYC2Au4o3m2R_S_-63" target="zIMK_kYC2Au4o3m2R_S_-66">
          <mxGeometry relative="1" as="geometry" />
        </mxCell>
        <mxCell id="zIMK_kYC2Au4o3m2R_S_-63" value="" style="ellipse;whiteSpace=wrap;html=1;aspect=fixed;" vertex="1" parent="1">
          <mxGeometry x="1513" y="1431" width="56.5" height="56.5" as="geometry" />
        </mxCell>
        <mxCell id="zIMK_kYC2Au4o3m2R_S_-65" value="L" style="text;html=1;align=center;verticalAlign=middle;resizable=0;points=[];autosize=1;strokeColor=none;fillColor=none;" vertex="1" parent="1">
          <mxGeometry x="1376" y="1418" width="25" height="26" as="geometry" />
        </mxCell>
        <mxCell id="zIMK_kYC2Au4o3m2R_S_-66" value="" style="ellipse;whiteSpace=wrap;html=1;aspect=fixed;" vertex="1" parent="1">
          <mxGeometry x="1924" y="1163" width="56.5" height="56.5" as="geometry" />
        </mxCell>
        <mxCell id="zIMK_kYC2Au4o3m2R_S_-68" value="u|U" style="text;html=1;align=center;verticalAlign=middle;resizable=0;points=[];autosize=1;strokeColor=none;fillColor=none;" vertex="1" parent="1">
          <mxGeometry x="1741" y="1437" width="36" height="26" as="geometry" />
        </mxCell>
        <mxCell id="zIMK_kYC2Au4o3m2R_S_-70" value="u|U" style="text;html=1;align=center;verticalAlign=middle;resizable=0;points=[];autosize=1;strokeColor=none;fillColor=none;" vertex="1" parent="1">
          <mxGeometry x="1430" y="1349" width="36" height="26" as="geometry" />
        </mxCell>
        <mxCell id="zIMK_kYC2Au4o3m2R_S_-76" style="edgeStyle=orthogonalEdgeStyle;rounded=0;orthogonalLoop=1;jettySize=auto;html=1;" edge="1" parent="1" source="zIMK_kYC2Au4o3m2R_S_-71" target="zIMK_kYC2Au4o3m2R_S_-66">
          <mxGeometry relative="1" as="geometry">
            <Array as="points">
              <mxPoint x="1938" y="1102" />
            </Array>
          </mxGeometry>
        </mxCell>
        <mxCell id="zIMK_kYC2Au4o3m2R_S_-71" value="" style="ellipse;whiteSpace=wrap;html=1;aspect=fixed;" vertex="1" parent="1">
          <mxGeometry x="1559" y="1071" width="62" height="62" as="geometry" />
        </mxCell>
        <mxCell id="zIMK_kYC2Au4o3m2R_S_-73" value="l" style="text;html=1;align=center;verticalAlign=middle;resizable=0;points=[];autosize=1;strokeColor=none;fillColor=none;" vertex="1" parent="1">
          <mxGeometry x="1145" y="1207.25" width="21" height="26" as="geometry" />
        </mxCell>
        <mxCell id="zIMK_kYC2Au4o3m2R_S_-74" value="l" style="text;html=1;align=center;verticalAlign=middle;resizable=0;points=[];autosize=1;strokeColor=none;fillColor=none;" vertex="1" parent="1">
          <mxGeometry x="1437.5" y="1107.28" width="21" height="26" as="geometry" />
        </mxCell>
        <mxCell id="zIMK_kYC2Au4o3m2R_S_-77" value="u|U" style="text;html=1;align=center;verticalAlign=middle;resizable=0;points=[];autosize=1;strokeColor=none;fillColor=none;" vertex="1" parent="1">
          <mxGeometry x="1743" y="1081.28" width="36" height="26" as="geometry" />
        </mxCell>
        <mxCell id="zIMK_kYC2Au4o3m2R_S_-79" value="u|U" style="text;html=1;align=center;verticalAlign=middle;resizable=0;points=[];autosize=1;strokeColor=none;fillColor=none;" vertex="1" parent="1">
          <mxGeometry x="1743" y="1137" width="36" height="26" as="geometry" />
        </mxCell>
        <mxCell id="zIMK_kYC2Au4o3m2R_S_-85" style="edgeStyle=orthogonalEdgeStyle;rounded=0;orthogonalLoop=1;jettySize=auto;html=1;" edge="1" parent="1" source="zIMK_kYC2Au4o3m2R_S_-80" target="zIMK_kYC2Au4o3m2R_S_-66">
          <mxGeometry relative="1" as="geometry">
            <Array as="points">
              <mxPoint x="1961" y="859" />
            </Array>
          </mxGeometry>
        </mxCell>
        <mxCell id="zIMK_kYC2Au4o3m2R_S_-80" value="" style="ellipse;whiteSpace=wrap;html=1;aspect=fixed;" vertex="1" parent="1">
          <mxGeometry x="1561.75" y="830.5" width="56.5" height="56.5" as="geometry" />
        </mxCell>
        <mxCell id="zIMK_kYC2Au4o3m2R_S_-84" style="edgeStyle=orthogonalEdgeStyle;rounded=0;orthogonalLoop=1;jettySize=auto;html=1;" edge="1" parent="1" source="zIMK_kYC2Au4o3m2R_S_-82" target="zIMK_kYC2Au4o3m2R_S_-66">
          <mxGeometry relative="1" as="geometry" />
        </mxCell>
        <mxCell id="zIMK_kYC2Au4o3m2R_S_-82" value="" style="ellipse;whiteSpace=wrap;html=1;aspect=fixed;" vertex="1" parent="1">
          <mxGeometry x="1561.75" y="985" width="56.5" height="56.5" as="geometry" />
        </mxCell>
        <mxCell id="zIMK_kYC2Au4o3m2R_S_-86" value="L" style="text;html=1;align=center;verticalAlign=middle;resizable=0;points=[];autosize=1;strokeColor=none;fillColor=none;" vertex="1" parent="1">
          <mxGeometry x="1255" y="830.5" width="25" height="26" as="geometry" />
        </mxCell>
        <mxCell id="zIMK_kYC2Au4o3m2R_S_-87" value="l" style="text;html=1;align=center;verticalAlign=middle;resizable=0;points=[];autosize=1;strokeColor=none;fillColor=none;" vertex="1" parent="1">
          <mxGeometry x="1458.5" y="989" width="21" height="26" as="geometry" />
        </mxCell>
        <mxCell id="zIMK_kYC2Au4o3m2R_S_-88" value="l" style="text;html=1;align=center;verticalAlign=middle;resizable=0;points=[];autosize=1;strokeColor=none;fillColor=none;" vertex="1" parent="1">
          <mxGeometry x="1722" y="989" width="21" height="26" as="geometry" />
        </mxCell>
        <mxCell id="zIMK_kYC2Au4o3m2R_S_-91" value="L" style="text;html=1;align=center;verticalAlign=middle;resizable=0;points=[];autosize=1;strokeColor=none;fillColor=none;" vertex="1" parent="1">
          <mxGeometry x="1255" y="830.5" width="25" height="26" as="geometry" />
        </mxCell>
        <mxCell id="zIMK_kYC2Au4o3m2R_S_-92" value="L" style="text;html=1;align=center;verticalAlign=middle;resizable=0;points=[];autosize=1;strokeColor=none;fillColor=none;" vertex="1" parent="1">
          <mxGeometry x="1718" y="830.5" width="25" height="26" as="geometry" />
        </mxCell>
        <mxCell id="zIMK_kYC2Au4o3m2R_S_-93" value="" style="ellipse;whiteSpace=wrap;html=1;aspect=fixed;" vertex="1" parent="1">
          <mxGeometry x="1046.5" y="989" width="49.5" height="49.5" as="geometry" />
        </mxCell>
        <mxCell id="zIMK_kYC2Au4o3m2R_S_-94" value="" style="ellipse;whiteSpace=wrap;html=1;aspect=fixed;" vertex="1" parent="1">
          <mxGeometry x="1249.25" y="1077.53" width="49.5" height="49.5" as="geometry" />
        </mxCell>
        <mxCell id="zIMK_kYC2Au4o3m2R_S_-95" value="" style="ellipse;whiteSpace=wrap;html=1;aspect=fixed;" vertex="1" parent="1">
          <mxGeometry x="1334.5" y="1359.5" width="49.5" height="49.5" as="geometry" />
        </mxCell>
        <mxCell id="zIMK_kYC2Au4o3m2R_S_-96" value="" style="ellipse;whiteSpace=wrap;html=1;aspect=fixed;" vertex="1" parent="1">
          <mxGeometry x="1516.5" y="1434.5" width="49.5" height="49.5" as="geometry" />
        </mxCell>
        <mxCell id="zIMK_kYC2Au4o3m2R_S_-97" value="" style="ellipse;whiteSpace=wrap;html=1;aspect=fixed;" vertex="1" parent="1">
          <mxGeometry x="1565.25" y="1077.53" width="49.5" height="49.5" as="geometry" />
        </mxCell>
        <mxCell id="zIMK_kYC2Au4o3m2R_S_-98" value="" style="ellipse;whiteSpace=wrap;html=1;aspect=fixed;" vertex="1" parent="1">
          <mxGeometry x="1565.25" y="988.5" width="49.5" height="49.5" as="geometry" />
        </mxCell>
        <mxCell id="zIMK_kYC2Au4o3m2R_S_-99" value="" style="ellipse;whiteSpace=wrap;html=1;aspect=fixed;" vertex="1" parent="1">
          <mxGeometry x="1565.25" y="834" width="49.5" height="49.5" as="geometry" />
        </mxCell>
        <mxCell id="zIMK_kYC2Au4o3m2R_S_-100" value="" style="ellipse;whiteSpace=wrap;html=1;aspect=fixed;" vertex="1" parent="1">
          <mxGeometry x="1927.5" y="1166.5" width="49.5" height="49.5" as="geometry" />
        </mxCell>
        <mxCell id="zIMK_kYC2Au4o3m2R_S_-101" value="" style="curved=1;endArrow=classic;html=1;rounded=0;exitX=1;exitY=0;exitDx=0;exitDy=0;entryX=0;entryY=0;entryDx=0;entryDy=0;" edge="1" parent="1">
          <mxGeometry width="50" height="50" relative="1" as="geometry">
            <mxPoint x="1010" y="898" as="sourcePoint" />
            <mxPoint x="970" y="898" as="targetPoint" />
            <Array as="points">
              <mxPoint x="1012" y="868" />
              <mxPoint x="992" y="856" />
              <mxPoint x="974" y="869" />
            </Array>
          </mxGeometry>
        </mxCell>
      </root>
    </mxGraphModel>
  </diagram>
</mxfile>
